# xmcd
#
# Track frame offsets: 
#        150
#        41817
#        46425
#        59580
#        85315
#        110797
#        134017
#        149462
#        154185
#        162715
#        180835
#        202315
#        216552
#        221410
#        224940
#        229650
#        241697
#        271425
#        277420
#        295505
#        304532
#        311750
#        319127
#        325747
#        331367
#
# Disc length: 4517 seconds
#
# Revision: 2
# Processed by: cddbd v1.5.2PL0 Copyright (c) Steve Scherf et al.
# Submitted via: ExactAudioCopy v0.99pb5
#
DISCID=a211a319
DTITLE=Various Artist - Historische Orgel in Nederland, het  cd 11 - Middelst
DTITLE=um, R'dam-Delfshaven, Beusichem, Hazerswoude
DYEAR=2000
DGENRE=Orgel
TTITLE0=Muffat - Passacaglia in g · Hippolythuskerk, Middelstum · Geer
TTITLE0=t Bierling
TTITLE1=Händel - Orgelkonzert in B, op. 4 Nr. 2 (Adagio e staccato) · 
TTITLE1=Middelstum · Geert Bierling
TTITLE2=Händel - Orgelkonzert in B, op. 4 Nr. 2 (Allegro ma non presto
TTITLE2=) · Middelstum · Geert Bierling
TTITLE3=De Lange sr - Fantasie-Sonate Nr. 3 in g (Allegro moderato) · 
TTITLE3=Oude of Pelgrimvaderskerk, Rotterdam · Geert Bierling
TTITLE4=De Lange sr - Fantasie-Sonate Nr. 3 in g (Andante religioso) ·
TTITLE4=Rotterdam · Geert Bierling
TTITLE5=De Lange sr - Fantasie-Sonate Nr. 3 in g (Allegro Recitativo e
TTITLE5=t Finale: Moderato-Fuga) · Rotterdam · Geert Bierling
TTITLE6=Wilms - Die Schlacht von Waterloo (Marche) · Johannes de Doper
TTITLE6=kerk, Beusichem · Geert Bierling
TTITLE7=Wilms - Die Schlacht von Waterloo (Allegro "Ah ça ira") ·  Beu
TTITLE7=sichem · Geert Bierling
TTITLE8=Wilms - Die Schlacht von Waterloo (Recitativo) · Beusichem · G
TTITLE8=eert Bierling
TTITLE9=Wilms - Die Schlacht von Waterloo (Allegro con fuoco) · Beusic
TTITLE9=hem · Geert Bierling
TTITLE10=Wilms - Die Schlacht von Waterloo (Marche) · Beusichem · Geer
TTITLE10=t Bierling
TTITLE11=Wilms - Die Schlacht von Waterloo (Lamentabile) · Beusichem ·
TTITLE11=Geert Bierling
TTITLE12=Wilms - Die Schlacht von Waterloo (God save the King) · Beusi
TTITLE12=chem · Geert Bierling
TTITLE13=Wilms - Die Schlacht von Waterloo (Wilhelmus van Nassouw) · B
TTITLE13=eusichem · Geert Bierling
TTITLE14=Wilms - Die Schlacht von Waterloo (Allegretto) · Beusichem · 
TTITLE14=Geert Bierling
TTITLE15=Wilms - Die Schlacht von Waterloo (Allegro) · Beusichem · Gee
TTITLE15=rt Bierling
TTITLE16=Geert Bierling: Lofzang van Simeon (Koraalvoorspel) · Beusich
TTITLE16=em · Geert Bierling
TTITLE17=Geert Bierling: Lofzang van Simeon (Koraalzetting) · Beusiche
TTITLE17=m · Geert Bierling
TTITLE18=Bach - Preludium es-moll aus dem Wohltemperirten Clavir · Her
TTITLE18=vormde Kerk, Hazerswoude · Dick Sanderman
TTITLE19=Derx - Adagio an As "Met lieflijk zuchte geluiden" · Hervormd
TTITLE19=e Kerk, Hazerswoude · Dick Sanderman
TTITLE20=Schumann - Canonisch Liedchen · Hervormde Kerk, Hazerswoude ·
TTITLE20=Dick Sanderman
TTITLE21=Vries, Hendrik de - Gefigureerd Koraal Psalm 30, var.1 · Herv
TTITLE21=ormde Kerk, Hazerswoude · Dick Sanderman
TTITLE22=Vries, Hendrik de - Gefigureerd Koraal Psalm 30, var.2 · Herv
TTITLE22=ormde Kerk, Hazerswoude · Dick Sanderman
TTITLE23=Vries, Hendrik de - Gefigureerd Koraal Psalm 30, var.3 · Herv
TTITLE23=ormde Kerk, Hazerswoude · Dick Sanderman
TTITLE24=Vries, Hendrik de - Gefigureerd Koraal Psalm 30, var.4 · Herv
TTITLE24=ormde Kerk, Hazerswoude · Dick Sanderman
EXTD=YEAR: 2000  ID3G:   0
EXTT0=
EXTT1=
EXTT2=
EXTT3=
EXTT4=
EXTT5=
EXTT6=
EXTT7=
EXTT8=
EXTT9=
EXTT10=
EXTT11=
EXTT12=
EXTT13=
EXTT14=
EXTT15=
EXTT16=
EXTT17=
EXTT18=
EXTT19=
EXTT20=
EXTT21=
EXTT22=
EXTT23=
EXTT24=
PLAYORDER=
